<?xml version="1.0" encoding="utf-8"?>
<!-- Svg Vector Icons : http://www.onlinewebfonts.com/icon -->
<!DOCTYPE svg PUBLIC "-//W3C//DTD SVG 1.1//EN" "http://www.w3.org/Graphics/SVG/1.1/DTD/svg11.dtd">
<svg version="1.1" xmlns="http://www.w3.org/2000/svg" xmlns:xlink="http://www.w3.org/1999/xlink" x="0px" y="0px" viewBox="0 0 256 256" enable-background="new 0 0 256 256" xml:space="preserve">
<metadata> Svg Vector Icons : http://www.onlinewebfonts.com/icon </metadata>
<g><g><g><path fill="#000000" d="M74.4,28.8c-3.1,1.6-4.3,4.2-4.3,9.3v3.9l-3.7,1.3c-2.1,0.7-5.2,2-7.1,2.8l-3.4,1.6l-3.1-3c-3.7-3.5-5.8-4.4-8.8-3.6c-1.5,0.4-3.8,2.3-10.3,8.7c-4.7,4.5-8.8,8.7-9.3,9.5c-1.1,1.6-1.2,5.4-0.2,7.2c0.4,0.7,1.9,2.5,3.3,3.8L30,73l-1.8,3.5c-1,1.9-2.4,5.1-3.1,7.2l-1.3,3.7l-4.5,0.2c-4.9,0.1-6.1,0.7-8.1,3.5c-1,1.3-1,2.1-1.2,13.7c-0.1,11.6-0.1,12.5,0.8,14.3c1.5,2.9,3,3.7,7.9,3.9l4.3,0.2l1.3,3.8c0.7,2.1,2.1,5.6,3.1,7.7l1.8,3.8l-2.5,2.4c-1.3,1.3-2.6,2.9-2.9,3.6c-0.6,1.7-0.5,4.8,0.2,6.3c0.4,0.7,4.4,5,9,9.5c6.6,6.6,8.7,8.4,10.3,8.8c3.2,1,5.2,0.3,8.3-2.6l2.6-2.5l3.5,1.7l3.5,1.7l3.3-1.1c4-1.2,8.2-2,11.7-2c2.6,0,2.7-0.1,5.2-2.6c1.4-1.4,2.4-2.7,2.1-2.8c-0.2-0.1-1.8-0.6-3.5-1.1c-3.8-1-8.9-0.7-14.8,0.8l-4,1l-3.7-2.2c-2.1-1.2-3.9-2.2-4.2-2.2c-0.2,0-2,1.6-4,3.6l-3.6,3.6l-7.7-7.4l-7.7-7.4l3.9-4l3.9-4l-2.8-5.3c-2.5-4.7-4.7-10.5-6.2-16.5l-0.5-2h-5.7h-5.8v-10.6V94.6h6h6l1.7-5.4c1-2.9,2.7-7.2,3.9-9.5c1.2-2.3,2.6-5,3.2-6.1l1.1-2.1l-4.3-4l-4.3-4l7.7-7.7l7.7-7.7l4.4,4.4l4.4,4.4l6-3c3.3-1.6,8.4-3.7,11.2-4.5l5.3-1.5l0.1-6.3l0.1-6.3l10.9,0.1l10.9,0.1l0.2,6.2l0.2,6.2l4.6,1.3c5.9,1.7,8.9,2.9,13.9,5.6l4,2.2l4.4-4.4l4.4-4.4l7.7,7.7l7.7,7.7l-4.3,4l-4.3,4l2.9,5.2c3.1,5.5,4.8,9.7,6.6,15.5l1,3.4L151,93c1.5-1.3,2.7-2.8,2.7-3.3c0-1.5-2.5-8.3-4.7-12.6l-2.1-4.2l2.9-3.1c3.2-3.4,3.7-4.5,3.3-7.6c-0.3-2.6-0.3-2.6-10.2-12.3c-6.5-6.4-8.6-8.1-10.1-8.6c-3-0.8-5.2,0-8.7,3.4c-1.6,1.5-3.1,2.8-3.4,2.8c-0.2,0-1.7-0.6-3.4-1.4c-1.7-0.8-4.8-2-6.8-2.7l-3.8-1.3l-0.2-4.4c-0.2-5.3-1.1-7.2-4.2-8.8c-2-1-2.6-1.1-13.9-1.1C77,27.7,76.4,27.8,74.4,28.8z"/><path fill="#000000" d="M187.6,50.6c-8,1.7-13.9,5.4-19.1,11.9c-4.9,6-6.8,12.3-6.5,21.1l0.1,5.6l-40.6,40.1L81,169.3l-5.6,0.3c-8.7,0.5-13.9,2.6-19.7,7.9c-13.1,12.1-12.5,32.6,1.2,44c5.4,4.5,11.8,6.7,19.1,6.7c5.4,0,8-0.6,13.2-3.1c3.3-1.5,4.8-2.6,7.7-5.6c6.1-6.1,8.7-12.4,8.7-20.8v-4.5l40.7-40.1L187,114h6.8c6.1,0,7.2-0.2,10.7-1.3c10.3-3.4,18.7-12.4,21.3-22.7c1.2-4.9,1.2-10.9,0-15.7c-1.7-6.6-0.5-7.1-12.9,5c-6,5.9-11.6,11-12.5,11.3c-1.9,0.8-4.4,0.9-6.2,0.1c-1.8-0.7-7.8-6.5-8.6-8.5c-0.9-2-0.9-4.1,0-6.1c0.3-0.9,5.4-6.2,11.5-12.4l11-10.8l-2-0.9C201.2,50,193.3,49.3,187.6,50.6z M80.2,186.7c3.7,1.1,7.4,4.8,8.4,8.6c3.7,12.8-12.4,22.3-21.9,12.7c-4.5-4.4-5.1-11-1.5-16.2c1.7-2.5,3.6-3.9,6.5-5C74.8,185.7,76.9,185.7,80.2,186.7z"/><path fill="#000000" d="M75.9,71.5c-5.4,1.4-9.9,4-14,8.2c-9.5,9.4-11.9,23.5-5.9,35.5c2.1,4.3,7.5,10.2,11.4,12.5c10.7,6.4,23.6,6.2,34-0.7c6.8-4.5,11.6-11.8,13.2-19.9c3-14.9-6.1-30.1-21-35.1C89,70.4,80.7,70.2,75.9,71.5z M90,78.5c6.6,1.7,12.6,6.8,15.6,12.9c6.8,14.3-2.5,31.3-18.3,33.5c-12.1,1.7-23.6-5.9-26.6-17.6c-3.3-12.5,4.4-25.3,17.2-28.7C81.3,77.6,86.5,77.6,90,78.5z"/><path fill="#000000" d="M215.2,116.4c-0.7,0.4-1.8,1.5-2.5,2.6c-0.7,1.1-1.5,2-1.8,2c-0.2,0-1.8-0.3-3.5-0.7c-4.4-1-13.5-1.8-16.3-1.4c-2.2,0.3-2.6,0.6-4.8,3l-2.4,2.7l3.5,0.4c12.5,1.4,18.9,2.4,22.3,3.5c2.1,0.6,3.9,1.2,4.1,1.2c0.1,0,1.1-1.2,2.1-2.6c1-1.4,1.9-2.6,2.1-2.6c0.7,0,5.3,3.4,5.3,3.9c0,0.3-0.8,1.6-1.7,2.9l-1.7,2.4l2.3,2.7c2.9,3.4,4.9,6.3,6.6,9.7c0.7,1.4,1.3,2.7,1.4,2.7c0,0,1.5-0.2,3.3-0.5c3.1-0.6,3.3-0.6,3.5,0.4c0.9,3.8,1.1,5.3,0.9,5.6c-0.1,0.2-1.3,0.5-2.6,0.7c-1.3,0.2-2.7,0.6-3.1,1c-0.4,0.4-0.7,2.4-0.9,4.9c-0.1,2.3-0.9,6.2-1.6,8.7c-0.7,2.5-1.2,4.5-1.1,4.6c0.1,0,1.2,0.8,2.5,1.7l2.3,1.5l-1.9,2.9c-2.2,3.1-2,3.1-5.3,0.8l-1.7-1.2l-3.6,3c-2,1.7-5.5,4-7.8,5.3l-4.3,2.2l0.3,2.2c0.2,1.2,0.4,2.5,0.6,2.8c0.1,0.4-0.7,0.8-2.6,1.2c-1.5,0.3-3.1,0.6-3.6,0.8c-0.6,0.2-0.9-0.4-1.3-2.6l-0.5-2.8l-4.5-0.3c-2.5-0.2-6.2-0.8-8.7-1.6c-2.4-0.7-4.7-1.3-5.1-1.5c-0.5-0.1-1.2,0.4-1.9,1.6c-0.6,1-1.3,2-1.4,2.3c-0.2,0.2-1.6-0.4-3.3-1.5l-2.9-2l1.4-2.1c0.8-1.2,1.4-2.2,1.4-2.3c0-0.1-1.4-1.9-3.1-3.9c-1.7-2-4-5.6-5.2-7.9c-1.2-2.3-2.4-4.1-2.6-4.1c-0.2,0-1.5,0.2-2.9,0.4l-2.4,0.3l-0.3-1.8c-0.2-1.1-0.4-2.5-0.6-3.4l-0.3-1.5l2.9-0.6l2.9-0.6l0.3-3.5c0.2-1.9,1-6.3,1.7-9.9c0.8-3.5,1.3-6.5,1.3-6.6c-0.1-0.1-2.1,1.4-4.5,3.3l-4.3,3.5l-0.7,3.7l-0.7,3.7l-1.9,0.2c-2.5,0.3-4.1,1.5-4.5,3.1c-0.2,0.8,0.2,4.2,1.1,8.5c1.7,9,2.2,9.7,6.5,9.4l2.9-0.2l0.9,1.7c0.5,1,1.7,2.8,2.7,4.1l1.8,2.3l-1,1.8c-1.4,2.4-1.4,4.8,0,6c0.6,0.5,3.6,2.6,6.6,4.7c6.8,4.5,8.1,4.7,10.7,1.7l1.7-1.9l4,0.8c2.2,0.4,4.5,0.9,5,1c0.8,0.1,1.1,0.7,1.3,2.1c0.3,1.8,2.5,4.4,3.8,4.4c1.2,0,13.7-2.5,14.9-3c1.9-0.8,2.8-2.8,2.5-5.6c-0.3-2.3-0.3-2.3,1.6-3.3c1-0.6,2.8-1.8,4-2.7l2.2-1.6l1.9,1.1c2,1.2,4,1.4,5.5,0.7c0.5-0.2,2.7-3.2,5-6.4c5.3-7.6,5.4-9.6,1.1-12.3l-1.6-1l0.6-2.5c0.3-1.3,0.8-3.5,1-4.7c0.3-2.3,0.3-2.3,2.5-2.6c2.5-0.3,5-2.4,5-4c0-1.4-2.4-13.1-3-14.7c-0.8-2.2-2.9-2.9-6.1-2.3c-1.5,0.3-2.7,0.5-2.7,0.4c0,0-0.6-1-1.2-2c-0.6-1.1-1.7-2.7-2.5-3.7l-1.4-1.8l1.5-2.3c1.6-2.5,1.8-4.3,0.7-5.9c-0.7-1.1-9.1-6.9-12.1-8.4C217.4,115.6,216.8,115.5,215.2,116.4z"/><path fill="#000000" d="M191.9,138.6c-9.9,3.6-16.1,13.3-14.7,23.1c0.8,5.5,2.6,9,6.7,12.8c9.8,9.1,25.5,7.2,32.7-4.1c4.8-7.3,4.4-17.3-0.9-24.2c-2.3-3-5.8-5.7-9.2-7.1C202.9,137.7,195.3,137.4,191.9,138.6z M204.1,146c3.2,1.5,5.5,3.5,7.1,6.3c1.3,2.3,1.4,3,1.4,6.6c0,3.7-0.1,4.3-1.5,6.7c-3.7,6.6-12.1,9.3-18.7,6.1c-9.2-4.5-10.9-16.6-3.3-23.3c1.2-1.1,3.1-2.2,4.2-2.6C196.2,144.8,201.6,144.8,204.1,146z"/></g></g></g>
</svg>